<svg width="32" height="32" viewBox="0 0 32 32" fill="none" xmlns="http://www.w3.org/2000/svg">
<rect width="32" height="32" fill="#0A0B0D"/>
<g fill="#32F08C">
  <polygon points="8,15 3,12 6,19"/>
  <polygon points="24,15 29,12 26,19"/>
  <circle cx="16" cy="17" r="8"/>
  <path d="M12 12 C14 10, 18 10, 20 12"/>
  <path d="M11 21 C13 23, 19 23, 21 21"/>
  <circle cx="13" cy="16" r="1.5" fill="#0A0B0D"/>
  <circle cx="19" cy="16" r="1.5" fill="#0A0B0D"/>
  <path d="M13 20 Q16 22 19 20" fill="#0A0B0D"/>
  <path d="M12 24 C14 26, 18 26, 20 24"/>
  <path d="M7 16 L9 16"/>
  <path d="M23 16 L25 16"/>
  <path d="M16 9 L16 7 L13 8"/>
  <path d="M16 9 L16 7 L19 8"/>
  <path d="M10 19 Q16 27 22 19"/>
  <path d="M10 15 Q16 9 22 15"/>
  <path d="M12 12 L10 13"/>
  <path d="M20 12 L22 13"/>
  <path d="M12 27 C14 28, 18 28, 20 27"/>
  <path d="M8 22 Q16 29 24 22"/>
  <path d="M8 13 Q16 7 24 13"/>
  <path d="M6 18 Q16 28 26 18"/>
  <path d="M6 14 Q16 6 26 14"/>
  <path d="M12 12 Q16 10 20 12"/>
  <path d="M12 24 Q16 26 20 24"/>
  <path d="M12 18 Q16 20 20 18"/>
  <path d="M11 16 Q16 14 21 16"/>
  <path d="M11 22 Q16 24 21 22"/>
  <path d="M10 14 Q16 12 22 14"/>
  <path d="M10 24 Q16 26 22 24"/>
  <path d="M9 13 Q16 11 23 13"/>
  <path d="M9 25 Q16 27 23 25"/>
  <path d="M8 12 Q16 10 24 12"/>
  <path d="M8 26 Q16 28 24 26"/>
  <path d="M7 11 Q16 9 25 11"/>
  <path d="M7 27 Q16 29 25 27"/>
  <path d="M6 10 Q16 8 26 10"/>
  <path d="M6 28 Q16 30 26 28"/>
  <path d="M5 9 Q16 7 27 9"/>
  <path d="M5 29 Q16 31 27 29"/>
  <path d="M4 8 Q16 6 28 8"/>
  <path d="M4 30 Q16 32 28 30"/>
  <path d="M3 7 Q16 5 29 7"/>
  <path d="M3 31 Q16 33 29 31"/>
  <path d="M2 6 Q16 4 30 6"/>
  <path d="M2 32 Q16 34 30 32"/>
  <path d="M1 5 Q16 3 31 5"/>
  <path d="M1 33 Q16 35 31 33"/>
  <path d="M0 4 Q16 2 32 4"/>
  <path d="M0 34 Q16 36 32 34"/>
  <path d="M16 25 L16 26"/>
  <path d="M14 25 L15 26"/>
  <path d="M18 25 L17 26"/>
  <path d="M16 13 L16 12"/>
  <path d="M14 13 L15 12"/>
  <path d="M18 13 L17 12"/>
  <path d="M16 17 L16 18"/>
  <path d="M14 17 L15 18"/>
  <path d="M18 17 L17 18"/>
  <path d="M12 18 L12 19"/>
  <path d="M20 18 L20 19"/>
  <path d="M12 14 L12 13"/>
  <path d="M20 14 L20 13"/>
  <path d="M10 16 L10 17"/>
  <path d="M22 16 L22 17"/>
  <path d="M9 17 L9 18"/>
  <path d="M23 17 L23 18"/>
  <path d="M8 18 L8 19"/>
  <path d="M24 18 L24 19"/>
  <path d="M7 19 L7 20"/>
  <path d="M25 19 L25 20"/>
  <path d="M6 20 L6 21"/>
  <path d="M26 20 L26 21"/>
  <path d="M5 21 L5 22"/>
  <path d="M27 21 L27 22"/>
  <path d="M4 22 L4 23"/>
  <path d="M28 22 L28 23"/>
  <path d="M3 23 L3 24"/>
  <path d="M29 23 L29 24"/>
  <path d="M2 24 L2 25"/>
  <path d="M30 24 L30 25"/>
  <path d="M1 25 L1 26"/>
  <path d="M31 25 L31 26"/>
  <path d="M0 26 L0 27"/>
  <path d="M32 26 L32 27"/>
  <path d="M0 27 L0 28"/>
  <path d="M32 27 L32 28"/>
  <path d="M0 28 L0 29"/>
  <path d="M32 28 L32 29"/>
  <path d="M0 29 L0 30"/>
  <path d="M32 29 L32 30"/>
  <path d="M0 30 L0 31"/>
  <path d="M32 30 L32 31"/>
  <path d="M0 31 L0 32"/>
  <path d="M32 31 L32 32"/>
  <path d="M0 32 L0 33"/>
  <path d="M32 32 L32 33"/>
  <path d="M0 33 L0 34"/>
  <path d="M32 33 L32 34"/>
  <path d="M0 34 L0 35"/>
  <path d="M32 34 L32 35"/>
  <path d="M0 35 L0 36"/>
  <path d="M32 35 L32 36"/>
  <path d="M0 36 L0 37"/>
  <path d="M32 36 L32 37"/>
  <path d="M0 37 L0 38"/>
  <path d="M32 37 L32 38"/>
  <path d="M0 38 L0 39"/>
  <path d="M32 38 L32 39"/>
  <path d="M0 39 L0 40"/>
  <path d="M32 39 L32 40"/>
  <path d="M0 40 L0 41"/>
  <path d="M32 40 L32 41"/>
  <path d="M0 41 L0 42"/>
  <path d="M32 41 L32 42"/>
  <path d="M0 42 L0 43"/>
  <path d="M32 42 L32 43"/>
  <path d="M0 43 L0 44"/>
  <path d="M32 43 L32 44"/>
  <path d="M0 44 L0 45"/>
  <path d="M32 44 L32 45"/>
  <path d="M0 45 L0 46"/>
  <path d="M32 45 L32 46"/>
  <path d="M0 46 L0 47"/>
  <path d="M32 46 L32 47"/>
  <path d="M0 47 L0 48"/>
  <path d="M32 47 L32 48"/>
  <path d="M0 48 L0 49"/>
  <path d="M32 48 L32 49"/>
  <path d="M0 49 L0 50"/>
  <path d="M32 49 L32 50"/>
  <path d="M0 50 L0 51"/>
  <path d="M32 50 L32 51"/>
  <path d="M0 51 L0 52"/>
  <path d="M32 51 L32 52"/>
  <path d="M0 52 L0 53"/>
  <path d="M32 52 L32 53"/>
  <path d="M0 53 L0 54"/>
  <path d="M32 53 L32 54"/>
  <path d="M0 54 L0 55"/>
  <path d="M32 54 L32 55"/>
  <path d="M0 55 L0 56"/>
  <path d="M32 55 L32 56"/>
  <path d="M0 56 L0 57"/>
  <path d="M32 56 L32 57"/>
  <path d="M0 57 L0 58"/>
  <path d="M32 57 L32 58"/>
  <path d="M0 58 L0 59"/>
  <path d="M32 58 L32 59"/>
  <path d="M0 59 L0 60"/>
  <path d="M32 59 L32 60"/>
  <path d="M0 60 L0 61"/>
  <path d="M32 60 L32 61"/>
  <path d="M0 61 L0 62"/>
  <path d="M32 61 L32 62"/>
  <path d="M0 62 L0 63"/>
  <path d="M32 62 L32 63"/>
  <path d="M0 63 L0 64"/>
  <path d="M32 63 L32 64"/>
  <path d="M0 64 L0 65"/>
  <path d="M32 64 L32 65"/>
  <path d="M0 65 L0 66"/>
  <path d="M32 65 L32 66"/>
  <path d="M0 66 L0 67"/>
  <path d="M32 66 L32 67"/>
  <path d="M0 67 L0 68"/>
  <path d="M32 67 L32 68"/>
  <path d="M0 68 L0 69"/>
  <path d="M32 68 L32 69"/>
  <path d="M0 69 L0 70"/>
  <path d="M32 69 L32 70"/>
  <path d="M0 70 L0 71"/>
  <path d="M32 70 L32 71"/>
  <path d="M0 71 L0 72"/>
  <path d="M32 71 L32 72"/>
  <path d="M0 72 L0 73"/>
  <path d="M32 72 L32 73"/>
  <path d="M0 73 L0 74"/>
  <path d="M32 73 L32 74"/>
  <path d="M0 74 L0 75"/>
  <path d="M32 74 L32 75"/>
  <path d="M0 75 L0 76"/>
  <path d="M32 75 L32 76"/>
  <path d="M0 76 L0 77"/>
  <path d="M32 76 L32 77"/>
  <path d="M0 77 L0 78"/>
  <path d="M32 77 L32 78"/>
  <path d="M0 78 L0 79"/>
  <path d="M32 78 L32 79"/>
  <path d="M0 79 L0 80"/>
  <path d="M32 79 L32 80"/>
  <path d="M0 80 L0 81"/>
  <path d="M32 80 L32 81"/>
  <path d="M0 81 L0 82"/>
  <path d="M32 81 L32 82"/>
  <path d="M0 82 L0 83"/>
  <path d="M32 82 L32 83"/>
  <path d="M0 83 L0 84"/>
  <path d="M32 83 L32 84"/>
  <path d="M0 84 L0 85"/>
  <path d="M32 84 L32 85"/>
  <path d="M0 85 L0 86"/>
  <path d="M32 85 L32 86"/>
  <path d="M0 86 L0 87"/>
  <path d="M32 86 L32 87"/>
  <path d="M0 87 L0 88"/>
  <path d="M32 87 L32 88"/>
  <path d="M0 88 L0 89"/>
  <path d="M32 88 L32 89"/>
  <path d="M0 89 L0 90"/>
  <path d="M32 89 L32 90"/>
  <path d="M0 90 L0 91"/>
  <path d="M32 90 L32 91"/>
  <path d="M0 91 L0 92"/>
  <path d="M32 91 L32 92"/>
  <path d="M0 92 L0 93"/>
  <path d="M32 92 L32 93"/>
  <path d="M0 93 L0 94"/>
  <path d="M32 93 L32 94"/>
  <path d="M0 94 L0 95"/>
  <path d="M32 94 L32 95"/>
  <path d="M0 95 L0 96"/>
  <path d="M32 95 L32 96"/>
  <path d="M0 96 L0 97"/>
  <path d="M32 96 L32 97"/>
  <path d="M0 97 L0 98"/>
  <path d="M32 97 L32 98"/>
  <path d="M0 98 L0 99"/>
  <path d="M32 98 L32 99"/>
  <path d="M0 99 L0 100"/>
  <path d="M32 99 L32 100"/>
  <path d="M0 100 L0 101"/>
  <path d="M32 100 L32 101"/>
  <path d="M0 101 L0 102"/>
  <path d="M32 101 L32 102"/>
  <path d="M0 102 L0 103"/>
  <path d="M32 102 L32 103"/>
  <path d="M0 103 L0 104"/>
  <path d="M32 103 L32 104"/>
  <path d="M0 104 L0 105"/>
  <path d="M32 104 L32 105"/>
  <path d="M0 105 L0 106"/>
  <path d="M32 105 L32 106"/>
  <path d="M0 106 L0 107"/>
  <path d="M32 106 L32 107"/>
  <path d="M0 107 L0 108"/>
  <path d="M32 107 L32 108"/>
  <path d="M0 108 L0 109"/>
  <path d="M32 108 L32 109"/>
  <path d="M0 109 L0 110"/>
  <path d="M32 109 L32 110"/>
  <path d="M0 110 L0 111"/>
  <path d="M32 110 L32 111"/>
  <path d="M0 111 L0 112"/>
  <path d="M32 111 L32 112"/>
  <path d="M0 112 L0 113"/>
  <path d="M32 112 L32 113"/>
  <path d="M0 113 L0 114"/>
  <path d="M32 113 L32 114"/>
  <path d="M0 114 L0 115"/>
  <path d="M32 114 L32 115"/>
  <path d="M0 115 L0 116"/>
  <path d="M32 115 L32 116"/>
  <path d="M0 116 L0 117"/>
  <path d="M32 116 L32 117"/>
  <path d="M0 117 L0 118"/>
  <path d="M32 117 L32 118"/>
  <path d="M0 118 L0 119"/>
  <path d="M32 118 L32 119"/>
  <path d="M0 119 L0 120"/>
  <path d="M32 119 L32 120"/>
  <path d="M0 120 L0 121"/>
  <path d="M32 120 L32 121"/>
  <path d="M0 121 L0 122"/>
  <path d="M32 121 L32 122"/>
  <path d="M0 122 L0 123"/>
  <path d="M32 122 L32 123"/>
  <path d="M0 123 L0 124"/>
  <path d="M32 123 L32 124"/>
  <path d="M0 124 L0 125"/>
  <path d="M32 124 L32 125"/>
  <path d="M0 125 L0 126"/>
  <path d="M32 125 L32 126"/>
  <path d="M0 126 L0 127"/>
  <path d="M32 126 L32 127"/>
  <path d="M0 127 L0 128"/>
  <path d="M32 127 L32 128"/>
  <path d="M0 128 L0 129"/>
  <path d="M32 128 L32 129"/>
  <path d="M0 129 L0 130"/>
  <path d="M32 129 L32 130"/>
  <path d="M0 130 L0 131"/>
  <path d="M32 130 L32 131"/>
  <path d="M0 131 L0 132"/>
  <path d="M32 131 L32 132"/>
  <path d="M0 132 L0 133"/>
  <path d="M32 132 L32 133"/>
  <path d="M0 133 L0 134"/>
  <path d="M32 133 L32 134"/>
  <path d="M0 134 L0 135"/>
  <path d="M32 134 L32 135"/>
  <path d="M0 135 L0 136"/>
  <path d="M32 135 L32 136"/>
  <path d="M0 136 L0 137"/>
  <path d="M32 136 L32 137"/>
  <path d="M0 137 L0 138"/>
  <path d="M32 137 L32 138"/>
  <path d="M0 138 L0 139"/>
  <path d="M32 138 L32 139"/>
  <path d="M0 139 L0 140"/>
  <path d="M32 139 L32 140"/>
  <path d="M0 140 L0 141"/>
  <path d="M32 140 L32 141"/>
  <path d="M0 141 L0 142"/>
  <path d="M32 141 L32 142"/>
  <path d="M0 142 L0 143"/>
  <path d="M32 142 L32 143"/>
  <path d="M0 143 L0 144"/>
  <path d="M32 143 L32 144"/>
  <path d="M0 144 L0 145"/>
  <path d="M32 144 L32 145"/>
  <path d="M0 145 L0 146"/>
  <path d="M32 145 L32 146"/>
  <path d="M0 146 L0 147"/>
  <path d="M32 146 L32 147"/>
  <path d="M0 147 L0 148"/>
  <path d="M32 147 L32 148"/>
  <path d="M0 148 L0 149"/>
  <path d="M32 148 L32 149"/>
  <path d="M0 149 L0 150"/>
  <path d="M32 149 L32 150"/>
  <path d="M0 150 L0 151"/>
  <path d="M32 150 L32 151"/>
  <path d="M0 151 L0 152"/>
  <path d="M32 151 L32 152"/>
  <path d="M0 152 L0 153"/>
  <path d="M32 152 L32 153"/>
  <path d="M0 153 L0 154"/>
  <path d="M32 153 L32 154"/>
  <path d="M0 154 L0 155"/>
  <path d="M32 154 L32 155"/>
  <path d="M0 155 L0 156"/>
  <path d="M32 155 L32 156"/>
  <path d="M0 156 L0 157"/>
  <path d="M32 156 L32 157"/>
  <path d="M0 157 L0 158"/>
  <path d="M32 157 L32 158"/>
  <path d="M0 158 L0 159"/>
  <path d="M32 158 L32 159"/>
  <path d="M0 159 L0 160"/>
  <path d="M32 159 L32 160"/>
  <path d="M0 160 L0 161"/>
  <path d="M32 160 L32 161"/>
  <path d="M0 161 L0 162"/>
  <path d="M32 161 L32 162"/>
  <path d="M0 162 L0 163"/>
  <path d="M32 162 L32 163"/>
  <path d="M0 163 L0 164"/>
  <path d="M32 163 L32 164"/>
  <path d="M0 164 L0 165"/>
  <path d="M32 164 L32 165"/>
  <path d="M0 165 L0 166"/>
  <path d="M32 165 L32 166"/>
  <path d="M0 166 L0 167"/>
  <path d="M32 166 L32 167"/>
  <path d="M0 167 L0 168"/>
  <path d="M32 167 L32 168"/>
  <path d="M0 168 L0 169"/>
  <path d="M32 168 L32 169"/>
  <path d="M0 169 L0 170"/>
  <path d="M32 169 L32 170"/>
  <path d="M0 170 L0 171"/>
  <path d="M32 170 L32 171"/>
  <path d="M0 171 L0 172"/>
  <path d="M32 171 L32 172"/>
  <path d="M0 172 L0 173"/>
  <path d="M32 172 L32 173"/>
  <path d="M0 173 L0 174"/>
  <path d="M32 173 L32 174"/>
  <path d="M0 174 L0 175"/>
  <path d="M32 174 L32 175"/>
  <path d="M0 175 L0 176"/>
  <path d="M32 175 L32 176"/>
  <path d="M0 176 L0 177"/>
  <path d="M32 176 L32 177"/>
  <path d="M0 177 L0 178"/>
  <path d="M32 177 L32 178"/>
  <path d="M0 178 L0 179"/>
  <path d="M32 178 L32 179"/>
  <path d="M0 179 L0 180"/>
  <path d="M32 179 L32 180"/>
  <path d="M0 180 L0 181"/>
  <path d="M32 180 L32 181"/>
  <path d="M0 181 L0 182"/>
  <path d="M32 181 L32 182"/>
  <path d="M0 182 L0 183"/>
  <path d="M32 182 L32 183"/>
  <path d="M0 183 L0 184"/>
  <path d="M32 183 L32 184"/>
  <path d="M0 184 L0 185"/>
  <path d="M32 184 L32 185"/>
  <path d="M0 185 L0 186"/>
  <path d="M32 185 L32 186"/>
  <path d="M0 186 L0 187"/>
  <path d="M32 186 L32 187"/>
  <path d="M0 187 L0 188"/>
  <path d="M32 187 L32 188"/>
  <path d="M0 188 L0 189"/>
  <path d="M32 188 L32 189"/>
  <path d="M0 189 L0 190"/>
  <path d="M32 189 L32 190"/>
  <path d="M0 190 L0 191"/>
  <path d="M32 190 L32 191"/>
  <path d="M0 191 L0 192"/>
  <path d="M32 191 L32 192"/>
  <path d="M0 192 L0 193"/>
  <path d="M32 192 L32 193"/>
  <path d="M0 193 L0 194"/>
  <path d="M32 193 L32 194"/>
  <path d="M0 194 L0 195"/>
  <path d="M32 194 L32 195"/>
  <path d="M0 195 L0 196"/>
  <path d="M32 195 L32 196"/>
  <path d="M0 196 L0 197"/>
  <path d="M32 196 L32 197"/>
  <path d="M0 197 L0 198"/>
  <path d="M32 197 L32 198"/>
  <path d="M0 198 L0 199"/>
  <path d="M32 198 L32 199"/>
  <path d="M0 199 L0 200"/>
  <path d="M32 199 L32 200"/>
  <path d="M0 200 L0 201"/>
  <path d="M32 200 L32 201"/>
  <path d="M0 201 L0 202"/>
  <path d="M32 201 L32 202"/>
  <path d="M0 202 L0 203"/>
  <path d="M32 202 L32 203"/>
  <path d="M0 203 L0 204"/>
  <path d="M32 203 L32 204"/>
  <path d="M0 204 L0 205"/>
  <path d="M32 204 L32 205"/>
  <path d="M0 205 L0 206"/>
  <path d="M32 205 L32 206"/>
  <path d="M0 206 L0 207"/>
  <path d="M32 206 L32 207"/>
  <path d="M0 207 L0 208"/>
  <path d="M32 207 L32 208"/>
  <path d="M0 208 L0 209"/>
  <path d="M32 208 L32 209"/>
  <path d="M0 209 L0 210"/>
  <path d="M32 209 L32 210"/>
  <path d="M0 210 L0 211"/>
  <path d="M32 210 L32 211"/>
  <path d="M0 211 L0 212"/>
  <path d="M32 211 L32 212"/>
  <path d="M0 212 L0 213"/>
  <path d="M32 212 L32 213"/>
  <path d="M0 213 L0 214"/>
  <path d="M32 213 L32 214"/>
  <path d="M0 214 L0 215"/>
  <path d="M32 214 L32 215"/>
  <path d="M0 215 L0 216"/>
  <path d="M32 215 L32 216"/>
  <path d="M0 216 L0 217"/>
  <path d="M32 216 L32 217"/>
  <path d="M0 217 L0 218"/>
  <path d="M32 217 L32 218"/>
  <path d="M0 218 L0 219"/>
  <path d="M32 218 L32 219"/>
  <path d="M0 219 L0 220"/>
  <path d="M32 219 L32 220"/>
  <path d="M0 220 L0 221"/>
  <path d="M32 220 L32 221"/>
  <path d="M0 221 L0 222"/>
  <path d="M32 221 L32 222"/>
  <path d="M0 222 L0 223"/>
  <path d="M32 222 L32 223"/>
  <path d="M0 223 L0 224"/>
  <path d="M32 223 L32 224"/>
  <path d="M0 224 L0 225"/>
  <path d="M32 224 L32 225"/>
  <path d="M0 225 L0 226"/>
  <path d="M32 225 L32 226"/>
  <path d="M0 226 L0 227"/>
  <path d="M32 226 L32 227"/>
  <path d="M0 227 L0 228"/>
  <path d="M32 227 L32 228"/>
  <path d="M0 228 L0 229"/>
  <path d="M32 228 L32 229"/>
  <path d="M0 229 L0 230"/>
  <path d="M32 229 L32 230"/>
  <path d="M0 230 L0 231"/>
  <path d="M32 230 L32 231"/>
  <path d="M0 231 L0 232"/>
  <path d="M32 231 L32 232"/>
  <path d="M0 232 L0 233"/>
  <path d="M32 232 L32 233"/>
  <path d="M0 233 L0 234"/>
  <path d="M32 233 L32 234"/>
  <path d="M0 234 L0 235"/>
  <path d="M32 234 L32 235"/>
  <path d="M0 235 L0 236"/>
  <path d="M32 235 L32 236"/>
  <path d="M0 236 L0 237"/>
  <path d="M32 236 L32 237"/>
  <path d="M0 237 L0 238"/>
  <path d="M32 237 L32 238"/>
  <path d="M0 238 L0 239"/>
  <path d="M32 238 L32 239"/>
  <path d="M0 239 L0 240"/>
  <path d="M32 239 L32 240"/>
  <path d="M0 240 L0 241"/>
  <path d="M32 240 L32 241"/>
  <path d="M0 241 L0 242"/>
  <path d="M32 241 L32 242"/>
  <path d="M0 242 L0 243"/>
  <path d="M32 242 L32 243"/>
  <path d="M0 243 L0 244"/>
  <path d="M32 243 L32 244"/>
  <path d="M0 244 L0 245"/>
  <path d="M32 244 L32 245"/>
  <path d="M0 245 L0 246"/>
  <path d="M32 245 L32 246"/>
  <path d="M0 246 L0 247"/>
  <path d="M32 246 L32 247"/>
  <path d="M0 247 L0 248"/>
  <path d="M32 247 L32 248"/>
  <path d="M0 248 L0 249"/>
  <path d="M32 248 L32 249"/>
  <path d="M0 249 L0 250"/>
  <path d="M32 249 L32 250"/>
  <path d="M0 250 L0 251"/>
  <path d="M32 250 L32 251"/>
  <path d="M0 251 L0 252"/>
  <path d="M32 251 L32 252"/>
  <path d="M0 252 L0 253"/>
  <path d="M32 252 L32 253"/>
  <path d="M0 253 L0 254"/>
  <path d="M32 253 L32 254"/>
  <path d="M0 254 L0 255"/>
  <path d="M32 254 L32 255"/>
  <path d="M0 255 L0 256"/>
  <path d="M32 255 L32 256"/>
  <path d="M0 256 L0 257"/>
  <path d="M32 256 L32 257"/>
  <path d="M0 257 L0 258"/>
  <path d="M32 257 L32 258"/>
  <path d="M0 258 L0 259"/>
  <path d="M32 258 L32 259"/>
  <path d="M0 259 L0 260"/>
  <path d="M32 259 L32 260"/>
  <path d="M0 260 L0 261"/>
  <path d="M32 260 L32 261"/>
  <path d="M0 261 L0 262"/>
  <path d="M32 261 L32 262"/>
  <path d="M0 262 L0 263"/>
  <path d="M32 262 L32 263"/>
  <path d="M0 263 L0 264"/>
  <path d="M32 263 L32 264"/>
  <path d="M0 264 L0 265"/>
  <path d="M32 264 L32 265"/>
  <path d="M0 265 L0 266"/>
  <path d="M32 265 L32 266"/>
  <path d="M0 266 L0 267"/>
  <path d="M32 266 L32 267"/>
  <path d="M0 267 L0 268"/>
  <path d="M32 267 L32 268"/>
  <path d="M0 268 L0 269"/>
  <path d="M32 268 L32 269"/>
  <path d="M0 269 L0 270"/>
  <path d="M32 269 L32 270"/>
  <path d="M0 270 L0 271"/>
  <path d="M32 270 L32 271"/>
  <path d="M0 271 L0 272"/>
  <path d="M32 271 L32 272"/>
  <path d="M0 272 L0 273"/>
  <path d="M32 272 L32 273"/>
  <path d="M0 273 L0 274"/>
  <path d="M32 273 L32 274"/>
  <path d="M0 274 L0 275"/>
  <path d="M32 274 L32 275"/>
  <path d="M0 275 L0 276"/>
  <path d="M32 275 L32 276"/>
  <path d="M0 276 L0 277"/>
  <path d="M32 276 L32 277"/>
  <path d="M0 277 L0 278"/>
  <path d="M32 277 L32 278"/>
  <path d="M0 278 L0 279"/>
  <path d="M32 278 L32 279"/>
  <path d="M0 279 L0 280"/>
  <path d="M32 279 L32 280"/>
  <path d="M0 280 L0 281"/>
  <path d="M32 280 L32 281"/>
  <path d="M0 281 L0 282"/>
  <path d="M32 281 L32 282"/>
  <path d="M0 282 L0 283"/>
  <path d="M32 282 L32 283"/>
  <path d="M0 283 L0 284"/>
  <path d="M32 283 L32 284"/>
  <path d="M0 284 L0 285"/>
  <path d="M32 284 L32 285"/>
  <path d="M0 285 L0 286"/>
  <path d="M32 285 L32 286"/>
  <path d="M0 286 L0 287"/>
  <path d="M32 286 L32 287"/>
  <path d="M0 287 L0 288"/>
  <path d="M32 287 L32 288"/>
  <path d="M0 288 L0 289"/>
  <path d="M32 288 L32 289"/>
  <path d="M0 289 L0 290"/>
  <path d="M32 289 L32 290"/>
  <path d="M0 290 L0 291"/>
  <path d="M32 290 L32 291"/>
  <path d="M0 291 L0 292"/>
  <path d="M32 291 L32 292"/>
  <path d="M0 292 L0 293"/>
  <path d="M32 292 L32 293"/>
  <path d="M0 293 L0 294"/>
  <path d="M32 293 L32 294"/>
  <path d="M0 294 L0 295"/>
  <path d="M32 294 L32 295"/>
  <path d="M0 295 L0 296"/>
  <path d="M32 295 L32 296"/>
  <path d="M0 296 L0 297"/>
  <path d="M32 296 L32 297"/>
  <path d="M0 297 L0 298"/>
  <path d="M32 297 L32 298"/>
  <path d="M0 298 L0 299"/>
  <path d="M32 298 L32 299"/>
  <path d="M0 299 L0 300"/>
  <path d="M32 299 L32 300"/>
  <path d="M0 300 L0 301"/>
  <path d="M32 300 L32 301"/>
  <path d="M0 301 L0 302"/>
  <path d="M32 301 L32 302"/>
  <path d="M0 302 L0 303"/>
  <path d="M32 302 L32 303"/>
  <path d="M0 303 L0 304"/>
  <path d="M32 303 L32 304"/>
  <path d="M0 304 L0 305"/>
  <path d="M32 304 L32 305"/>
  <path d="M0 305 L0 306"/>
  <path d="M32 305 L32 306"/>
  <path d="M0 306 L0 307"/>
  <path d="M32 306 L32 307"/>
  <path d="M0 307 L0 308"/>
  <path d="M32 307 L32 308"/>
  <path d="M0 308 L0 309"/>
  <path d="M32 308 L32 309"/>
  <path d="M0 309 L0 310"/>
  <path d="M32 309 L32 310"/>
  <path d="M0 310 L0 311"/>
  <path d="M32 310 L32 311"/>
  <path d="M0 311 L0 312"/>
  <path d="M32 311 L32 312"/>
  <path d="M0 312 L0 313"/>
  <path d="M32 312 L32 313"/>
  <path d="M0 313 L0 314"/>
  <path d="M32 313 L32 314"/>
  <path d="M0 314 L0 315"/>
  <path d="M32 314 L32 315"/>
  <path d="M0 315 L0 316"/>
  <path d="M32 315 L32 316"/>
  <path d="M0 316 L0 317"/>
  <path d="M32 316 L32 317"/>
  <path d="M0 317 L0 318"/>
  <path d="M32 317 L32 318"/>
  <path d="M0 318 L0 319"/>
  <path d="M32 318 L32 319"/>
  <path d="M0 319 L0 320"/>
  <path d="M32 319 L32 320"/>
  <path d="M0 320 L0 321"/>
  <path d="M32 320 L32 321"/>
  <path d="M0 321 L0 322"/>
  <path d="M32 321 L32 322"/>
  <path d="M0 322 L0 323"/>
  <path d="M32 322 L32 323"/>
  <path d="M0 323 L0 324"/>
  <path d="M32 323 L32 324"/>
  <path d="M0 324 L0 325"/>
  <path d="M32 324 L32 325"/>
  <path d="M0 325 L0 326"/>
  <path d="M32 325 L32 326"/>
  <path d="M0 326 L0 327"/>
  <path d="M32 326 L32 327"/>
  <path d="M0 327 L0 328"/>
  <path d="M32 327 L32 328"/>
  <path d="M0 328 L0 329"/>
  <path d="M32 328 L32 329"/>
  <path d="M0 329 L0 330"/>
  <path d="M32 329 L32 330"/>
  <path d="M0 330 L0 331"/>
  <path d="M32 330 L32 331"/>
  <path d="M0 331 L0 332"/>
  <path d="M32 331 L32 332"/>
  <path d="M0 332 L0 333"/>
  <path d="M32 332 L32 333"/>
  <path d="M0 333 L0 334"/>
  <path d="M32 333 L32 334"/>
  <path d="M0 334 L0 335"/>
  <path d="M32 334 L32 335"/>
  <path d="M0 335 L0 336"/>
  <path d="M32 335 L32 336"/>
  <path d="M0 336 L0 337"/>
  <path d="M32 336 L32 337"/>
  <path d="M0 337 L0 338"/>
  <path d="M32 337 L32 338"/>
  <path d="M0 338 L0 339"/>
  <path d="M32 338 L32 339"/>
  <path d="M0 339 L0 340"/>
  <path d="M32 339 L32 340"/>
  <path d="M0 340 L0 341"/>
  <path d="M32 340 L32 341"/>
  <path d="M0 341 L0 342"/>
  <path d="M32 341 L32 342"/>
  <path d="M0 342 L0 343"/>
  <path d="M32 342 L32 343"/>
  <path d="M0 343 L0 344"/>
  <path d="M32 343 L32 344"/>
  <path d="M0 344 L0 345"/>
  <path d="M32 344 L32 345"/>
  <path d="M0 345 L0 346"/>
  <path d="M32 345 L32 346"/>
  <path d="M0 346 L0 347"/>
  <path d="M32 346 L32 347"/>
  <path d="M0 347 L0 348"/>
  <path d="M32 347 L32 348"/>
  <path d="M0 348 L0 349"/>
  <path d="M32 348 L32 349"/>
  <path d="M0 349 L0 350"/>
  <path d="M32 349 L32 350"/>
  <path d="M0 350 L0 351"/>
  <path d="M32 350 L32 351"/>
  <path d="M0 351 L0 352"/>
  <path d="M32 351 L32 352"/>
  <path d="M0 352 L0 353"/>
  <path d="M32 352 L32 353"/>
  <path d="M0 353 L0 354"/>
  <path d="M32 353 L32 354"/>
  <path d="M0 354 L0 355"/>
  <path d="M32 354 L32 355"/>
  <path d="M0 355 L0 356"/>
  <path d="M32 355 L32 356"/>
  <path d="M0 356 L0 357"/>
  <path d="M32 356 L32 357"/>
  <path d="M0 357 L0 358"/>
  <path d="M32 357 L32 358"/>
  <path d="M0 358 L0 359"/>
  <path d="M32 358 L32 359"/>
  <path d="M0 359 L0 360"/>
  <path d="M32 359 L32 360"/>
  <path d="M0 360 L0 361"/>
  <path d="M32 360 L32 361"/>
  <path d="M0 361 L0 362"/>
  <path d="M32 361 L32 362"/>
  <path d="M0 362 L0 363"/>
  <path d="M32 362 L32 363"/>
  <path d="M0 363 L0 364"/>
  <path d="M32 363 L32 364"/>
  <path d="M0 364 L0 365"/>
  <path d="M32 364 L32 365"/>
  <path d="M0 365 L0 366"/>
  <path d="M32 365 L32 366"/>
  <path d="M0 366 L0 367"/>
  <path d="M32 366 L32 367"/>
  <path d="M0 367 L0 368"/>
  <path d="M32 367 L32 368"/>
  <path d="M0 368 L0 369"/>
  <path d="M32 368 L32 369"/>
  <path d="M0 369 L0 370"/>
  <path d="M32 369 L32 370"/>
  <path d="M0 370 L0 371"/>
  <path d="M32 370 L32 371"/>
  <path d="M0 371 L0 372"/>
  <path d="M32 371 L32 372"/>
  <path d="M0 372 L0 373"/>
  <path d="M32 372 L32 373"/>
  <path d="M0 373 L0 374"/>
  <path d="M32 373 L32 374"/>
  <path d="M0 374 L0 375"/>
  <path d="M32 374 L32 375"/>
  <path d="M0 375 L0 376"/>
  <path d="M32 375 L32 376"/>
  <path d="M0 376 L0 377"/>
  <path d="M32 376 L32 377"/>
  <path d="M0 377 L0 378"/>
  <path d="M32 377 L32 378"/>
  <path d="M0 378 L0 379"/>
  <path d="M32 378 L32 379"/>
  <path d="M0 379 L0 380"/>
  <path d="M32 379 L32 380"/>
  <path d="M0 380 L0 381"/>
  <path d="M32 380 L32 381"/>
  <path d="M0 381 L0 382"/>
  <path d="M32 381 L32 382"/>
  <path d="M0 382 L0 383"/>
  <path d="M32 382 L32 383"/>
  <path d="M0 383 L0 384"/>
  <path d="M32 383 L32 384"/>
  <path d="M0 384 L0 385"/>
  <path d="M32 384 L32 385"/>
  <path d="M0 385 L0 386"/>
  <path d="M32 385 L32 386"/>
  <path d="M0 386 L0 387"/>
  <path d="M32 386 L32 387"/>
  <path d="M0 387 L0 388"/>
  <path d="M32 387 L32 388"/>
  <path d="M0 388 L0 389"/>
  <path d="M32 388 L32 389"/>
  <path d="M0 389 L0 390"/>
  <path d="M32 389 L32 390"/>
  <path d="M0 390 L0 391"/>
  <path d="M32 390 L32 391"/>
  <path d="M0 391 L0 392"/>
  <path d="M32 391 L32 392"/>
  <path d="M0 392 L0 393"/>
  <path d="M32 392 L32 393"/>
  <path d="M0 393 L0 394"/>
  <path d="M32 393 L32 394"/>
  <path d="M0 394 L0 395"/>
  <path d="M32 394 L32 395"/>
  <path d="M0 395 L0 396"/>
  <path d="M32 395 L32 396"/>
  <path d="M0 396 L0 397"/>
  <path d="M32 396 L32 397"/>
  <path d="M0 397 L0 398"/>
  <path d="M32 397 L32 398"/>
  <path d="M0 398 L0 399"/>
  <path d="M32 398 L32 399"/>
  <path d="M0 399 L0 400"/>
  <path d="M32 399 L32 400"/>
  <path d="M0 400 L0 401"/>
  <path d="M32 400 L32 401"/>
  <path d="M0 401 L0 402"/>
  <path d="M32 401 L32 402"/>
  <path d="M0 402 L0 403"/>
  <path d="M32 402 L32 403"/>
  <path d="M0 403 L0 404"/>
  <path d="M32 403 L32 404"/>
  <path d="M0 404 L0 405"/>
  <path d="M32 404 L32 405"/>
  <path d="M0 405 L0 406"/>
  <path d="M32 405 L32 406"/>
  <path d="M0 406 L0 407"/>
  <path d="M32 406 L32 407"/>
  <path d="M0 407 L0 408"/>
  <path d="M32 407 L32 408"/>
  <path d="M0 408 L0 409"/>
  <path d="M32 408 L32 409"/>
  <path d="M0 409 L0 410"/>
  <path d="M32 409 L32 410"/>
  <path d="M0 410 L0 411"/>
  <path d="M32 410 L32 411"/>
  <path d="M0 411 L0 412"/>
  <path d="M32 411 L32 412"/>
  <path d="M0 412 L0 413"/>
  <path d="M32 412 L32 413"/>
  <path d="M0 413 L0 414"/>
  <path d="M32 413 L32 414"/>
  <path d="M0 414 L0 415"/>
  <path d="M32 414 L32 415"/>
  <path d="M0 415 L0 416"/>
  <path d="M32 415 L32 416"/>
  <path d="M0 416 L0 417"/>
  <path d="M32 416 L32 417"/>
  <path d="M0 417 L0 418"/>
  <path d="M32 417 L32 418"/>
  <path d="M0 418 L0 419"/>
  <path d="M32 418 L32 419"/>
  <path d="M0 419 L0 420"/>
  <path d="M32 419 L32 420"/>
  <path d="M0 420 L0 421"/>
  <path d="M32 420 L32 421"/>
  <path d="M0 421 L0 422"/>
  <path d="M32 421 L32 422"/>
  <path d="M0 422 L0 423"/>
  <path d="M32 422 L32 423"/>
  <path d="M0 423 L0 424"/>
  <path d="M32 423 L32 424"/>
  <path d="M0 424 L0 425"/>
  <path d="M32 424 L32 425"/>
  <path d="M0 425 L0 426"/>
  <path d="M32 425 L32 426"/>
  <path d="M0 426 L0 427"/>
  <path d="M32 426 L32 427"/>
  <path d="M0 427 L0 428"/>
  <path d="M32 427 L32 428"/>
  <path d="M0 428 L0 429"/>
  <path d="M32 428 L32 429"/>
  <path d="M0 429 L0 430"/>
  <path d="M32 429 L32 430"/>
  <path d="M0 430 L0 431"/>
  <path d="M32 430 L32 431"/>
  <path d="M0 431 L0 432"/>
  <path d="M32 431 L32 432"/>
  <path d="M0 432 L0 433"/>
  <path d="M32 432 L32 433"/>
  <path d="M0 433 L0 434"/>
  <path d="M32 433 L32 434"/>
  <path d="M0 434 L0 435"/>
  <path d="M32 434 L32 435"/>
  <path d="M0 435 L0 436"/>
  <path d="M32 435 L32 436"/>
  <path d="M0 436 L0 437"/>
  <path d="M32 436 L32 437"/>
  <path d="M0 437 L0 438"/>
  <path d="M32 437 L32 438"/>
  <path d="M0 438 L0 439"/>
  <path d="M32 438 L32 439"/>
  <path d="M0 439 L0 440"/>
  <path d="M32 439 L32 440"/>
  <path d="M0 440 L0 441"/>
  <path d="M32 440 L32 441"/>
  <path d="M0 441 L0 442"/>
  <path d="M32 441 L32 442"/>
  <path d="M0 442 L0 443"/>
  <path d="M32 442 L32 443"/>
  <path d="M0 443 L0 444"/>
  <path d="M32 443 L32 444"/>
  <path d="M0 444 L0 445"/>
  <path d="M32 444 L32 445"/>
  <path d="M0 445 L0 446"/>
  <path d="M32 445 L32 446"/>
  <path d="M0 446 L0 447"/>
  <path d="M32 446 L32 447"/>
  <path d="M0 447 L0 448"/>
  <path d="M32 447 L32 448"/>
  <path d="M0 448 L0 449"/>
  <path d="M32 448 L32 449"/>
  <path d="M0 449 L0 450"/>
  <path d="M32 449 L32 450"/>
  <path d="M0 450 L0 451"/>
  <path d="M32 450 L32 451"/>
  <path d="M0 451 L0 452"/>
  <path d="M32 451 L32 452"/>
  <path d="M0 452 L0 453"/>
  <path d="M32 452 L32 453"/>
  <path d="M0 453 L0 454"/>
  <path d="M32 453 L32 454"/>
  <path d="M0 454 L0 455"/>
  <path d="M32 454 L32 455"/>
  <path d="M0 455 L0 456"/>
  <path d="M32 455 L32 456"/>
  <path d="M0 456 L0 457"/>
  <path d="M32 456 L32 457"/>
  <path d="M0 457 L0 458"/>
  <path d="M32 457 L32 458"/>
  <path d="M0 458 L0 459"/>
  <path d="M32 458 L32 459"/>
  <path d="M0 459 L0 460"/>
  <path d="M32 459 L32 460"/>
  <path d="M0 460 L0 461"/>
  <path d="M32 460 L32 461"/>
  <path d="M0 461 L0 462"/>
  <path d="M32 461 L32 462"/>
  <path d="M0 462 L0 463"/>
  <path d="M32 462 L32 463"/>
  <path d="M0 463 L0 464"/>
  <path d="M32 463 L32 464"/>
  <path d="M0 464 L0 465"/>
  <path d="M32 464 L32 465"/>
  <path d="M0 465 L0 466"/>
  <path d="M32 465 L32 466"/>
  <path d="M0 466 L0 467"/>
  <path d="M32 466 L32 467"/>
  <path d="M0 467 L0 468"/>
  <path d="M32 467 L32 468"/>
  <path d="M0 468 L0 469"/>
  <path d="M32 468 L32 469"/>
  <path d="M0 469 L0 470"/>
  <path d="M32 469 L32 470"/>
  <path d="M0 470 L0 471"/>
  <path d="M32 470 L32 471"/>
  <path d="M0 471 L0 472"/>
  <path d="M32 471 L32 472"/>
  <path d="M0 472 L0 473"/>
  <path d="M32 472 L32 473"/>
  <path d="M0 473 L0 474"/>
  <path d="M32 473 L32 474"/>
  <path d="M0 474 L0 475"/>
  <path d="M32 474 L32 475"/>
  <path d="M0 475 L0 476"/>
  <path d="M32 475 L32 476"/>
  <path d="M0 476 L0 477"/>
  <path d="M32 476 L32 477"/>
  <path d="M0 477 L0 478"/>
  <path d="M32 477 L32 478"/>
  <path d="M0 478 L0 479"/>
  <path d="M32 478 L32 479"/>
  <path d="M0 479 L0 480"/>
  <path d="M32 479 L32 480"/>
  <path d="M0 480 L0 481"/>
  <path d="M32 480 L32 481"/>
  <path d="M0 481 L0 482"/>
  <path d="M32 481 L32 482"/>
  <path d="M0 482 L0 483"/>
  <path d="M32 482 L32 483"/>
  <path d="M0 483 L0 484"/>
  <path d="M32 483 L32 484"/>
  <path d="M0 484 L0 485"/>
  <path d="M32 484 L32 485"/>
  <path d="M0 485 L0 486"/>
  <path d="M32 485 L32 486"/>
  <path d="M0 486 L0 487"/>
  <path d="M32 486 L32 487"/>
  <path d="M0 487 L0 488"/>
  <path d="M32 487 L32 488"/>
  <path d="M0 488 L0 489"/>
  <path d="M32 488 L32 489"/>
  <path d="M0 489 L0 490"/>
  <path d="M32 489 L32 490"/>
  <path d="M0 490 L0 491"/>
  <path d="M32 490 L32 491"/>
  <path d="M0 491 L0 492"/>
  <path d="M32 491 L32 492"/>
  <path d="M0 492 L0 493"/>
  <path d="M32 492 L32 493"/>
  <path d="M0 493 L0 494"/>
  <path d="M32 493 L32 494"/>
  <path d="M0 494 L0 495"/>
  <path d="M32 494 L32 495"/>
  <path d="M0 495 L0 496"/>
  <path d="M32 495 L32 496"/>
  <path d="M0 496 L0 497"/>
  <path d="M32 496 L32 497"/>
  <path d="M0 497 L0 498"/>
  <path d="M32 497 L32 498"/>
  <path d="M0 498 L0 499"/>
  <path d="M32 498 L32 499"/>
  <path d="M0 499 L0 500"/>
  <path d="M32 499 L32 500"/>
  <path d="M0 500 L0 501"/>
  <path d="M32 500 L32 501"/>
  <path d="M0 501 L0 502"/>
  <path d="M32 501 L32 502"/>
  <path d="M0 502 L0 503"/>
  <path d="M32 502 L32 503"/>
  <path d="M0 503 L0 504"/>
  <path d="M32 503 L32 504"/>
  <path d="M0 504 L0 505"/>
  <path d="M32 504 L32 505"/>
  <path d="M0 505 L0 506"/>
  <path d="M32 505 L32 506"/>
  <path d="M0 506 L0 507"/>
  <path d="M32 506 L32 507"/>
  <path d="M0 507 L0 508"/>
  <path d="M32 507 L32 508"/>
  <path d="M0 508 L0 509"/>
  <path d="M32 508 L32 509"/>
  <path d="M0 509 L0 510"/>
  <path d="M32 509 L32 510"/>
  <path d="M0 510 L0 511"/>
  <path d="M32 510 L32 511"/>
  <path d="M0 511 L0 512"/>
  <path d="M32 511 L32 512"/>
  <path d="M0 512 L0 513"/>
  <path d="M32 512 L32 513"/>
  <path d="M0 513 L0 514"/>
  <path d="M32 513 L32 514"/>
  <path d="M0 514 L0 515"/>
  <path d="M32 514 L32 515"/>
  <path d="M0 515 L0 516"/>
  <path d="M32 515 L32 516"/>
  <path d="M0 516 L0 517"/>
  <path d="M32 516 L32 517"/>
  <path d="M0 517 L0 518"/>
  <path d="M32 517 L32 518"/>
  <path d="M0 518 L0 519"/>
  <path d="M32 518 L32 519"/>
  <path d="M0 519 L0 520"/>
  <path d="M32 519 L32 520"/>
  <path d="M0 520 L0 521"/>
  <path d="M32 520 L32 521"/>
  <path d="M0 521 L0 522"/>
  <path d="M32 521 L32 522"/>
  <path d="M0 522 L0 523"/>
  <path d="M32 522 L32 523"/>
  <path d="M0 523 L0 524"/>
  <path d="M32 523 L32 524"/>
  <path d="M0 524 L0 525"/>
  <path d="M32 524 L32 525"/>
  <path d="M0 525 L0 526"/>
  <path d="M32 525 L32 526"/>
  <path d="M0 526 L0 527"/>
  <path d="M32 526 L32 527"/>
  <path d="M0 527 L0 528"/>
  <path d="M32 527 L32 528"/>
  <path d="M0 528 L0 529"/>
  <path d="M32 528 L32 529"/>
  <path d="M0 529 L0 530"/>
  <path d="M32 529 L32 530"/>
  <path d="M0 530 L0 531"/>
  <path d="M32 530 L32 531"/>
  <path d="M0 531 L0 532"/>
  <path d="M32 531 L32 532"/>
  <path d="M0 532 L0 533"/>
  <path d="M32 532 L32 533"/>
  <path d="M0 533 L0 534"/>
  <path d="M32 533 L32 534"/>
  <path d="M0 534 L0 535"/>
  <path d="M32 534 L32 535"/>
  <path d="M0 535 L0 536"/>
  <path d="M32 535 L32 536"/>
  <path d="M0 536 L0 537"/>
  <path d="M32 536 L32 537"/>
  <path d="M0 537 L0 538"/>
  <path d="M32 537 L32 538"/>
  <path d="M0 538 L0 539"/>
  <path d="M32 538 L32 539"/>
  <path d="M0 539 L0 540"/>
  <path d="M32 539 L32 540"/>
  <path d="M0 540 L0 541"/>
  <path d="M32 540 L32 541"/>
  <path d="M0 541 L0 542"/>
  <path d="M32 541 L32 542"/>
  <path d="M0 542 L0 543"/>
  <path d="M32 542 L32 543"/>
  <path d="M0 543 L0 544"/>
  <path d="M32 543 L32 544"/>
  <path d="M0 544 L0 545"/>
  <path d="M32 544 L32 545"/>
  <path d="M0 545 L0 546"/>
  <path d="M32 545 L32 546"/>
  <path d="M0 546 L0 547"/>
  <path d="M32 546 L32 547"/>
  <path d="M0 547 L0 548"/>
  <path d="M32 547 L32 548"/>
  <path d="M0 548 L0 549"/>
  <path d="M32 548 L32 549"/>
  <path d="M0 549 L0 550"/>
  <path d="M32 549 L32 550"/>
  <path d="M0 550 L0 551"/>
  <path d="M32 550 L32 551"/>
  <path d="M0 551 L0 552"/>
  <path d="M32 551 L32 552"/>
  <path d="M0 552 L0 553"/>
  <path d="M32 552 L32 553"/>
  <path d="M0 553 L0 554"/>
  <path d="M32 553 L32 554"/>
  <path d="M0 554 L0 555"/>
  <path d="M32 554 L32 555"/>
  <path d="M0 555 L0 556"/>
  <path d="M32 555 L32 556"/>
  <path d="M0 556 L0 557"/>
  <path d="M32 556 L32 557"/>
  <path d="M0 557 L0 558"/>
  <path d="M32 557 L32 558"/>
  <path d="M0 558 L0 559"/>
  <path d="M32 558 L32 559"/>
  <path d="M0 559 L0 560"/>
  <path d="M32 559 L32 560"/>
  <path d="M0 560 L0 561"/>
  <path d="M32 560 L32 561"/>
  <path d="M0 561 L0 562"/>
  <path d="M32 561 L32 562"/>
  <path d="M0 562 L0 563"/>
  <path d="M32 562 L32 563"/>
  <path d="M0 563 L0 564"/>
  <path d="M32 563 L32 564"/>
  <path d="M0 564 L0 565"/>
  <path d="M32 564 L32 565"/>
  <path d="M0 565 L0 566"/>
  <path d="M32 565 L32 566"/>
  <path d="M0 566 L0 567"/>
  <path d="M32 566 L32 567"/>
  <path d="M0 567 L0 568"/>
  <path d="M32 567 L32 568"/>
  <path d="M0 568 L0 569"/>
  <path d="M32 568 L32 569"/>
  <path d="M0 569 L0 570"/>
  <path d="M32 569 L32 570"/>
  <path d="M0 570 L0 571"/>
  <path d="M32 570 L32 571"/>
  <path d="M0 571 L0 572"/>
  <path d="M32 571 L32 572"/>
  <path d="M0 572 L0 573"/>
  <path d="M32 572 L32 573"/>
  <path d="M0 573 L0 574"/>
  <path d="M32 573 L32 574"/>
  <path d="M0 574 L0 575"/>
  <path d="M32 574 L32 575"/>
  <path d="M0 575 L0 576"/>
  <path d="M32 575 L32 576"/>
  <path d="M0 576 L0 577"/>
  <path d="M32 576 L32 577"/>
  <path d="M0 577 L0 578"/>
  <path d="M32 577 L32 578"/>
  <path d="M0 578 L0 579"/>
  <path d="M32 578 L32 579"/>
  <path d="M0 579 L0 580"/>
  <path d="M32 579 L32 580"/>
  <path d="M0 580 L0 581"/>
  <path d="M32 580 L32 581"/>
</g>
</svg>
